<svg width="44" height="43" viewBox="0 0 44 43" fill="none" xmlns="http://www.w3.org/2000/svg">
<path d="M19.6573 0.985138C24.7982 0.985138 28.9909 5.10598 28.9909 10.1794V20.0984H16.3495C15.4435 20.0984 14.7272 20.8025 14.7272 21.6929C14.7272 22.5626 15.4435 23.2874 16.3495 23.2874H28.9909V33.1857C28.9909 38.2591 24.7981 42.4007 19.6152 42.4007H9.35461C4.19272 42.4007 0 38.2798 0 33.2064V10.2001C0 5.10598 4.21379 0.985138 9.37568 0.985138H19.6573ZM34.2511 14.5491C34.8723 13.9072 35.887 13.9072 36.5082 14.5284L42.5549 20.5544C42.8655 20.865 43.0311 21.2585 43.0311 21.6933C43.0311 22.1075 42.8655 22.5216 42.5549 22.8115L36.5082 28.8375C36.1976 29.1481 35.7834 29.3138 35.39 29.3138C34.9758 29.3138 34.5617 29.1481 34.2511 28.8375C33.6298 28.2163 33.6298 27.2016 34.2511 26.5803L37.5643 23.2878H28.9913V20.0988H37.5643L34.2511 16.8063C33.6298 16.1851 33.6298 15.1704 34.2511 14.5491Z" fill="white"/>
</svg>
