<svg width="39" height="42" viewBox="0 0 39 42" fill="none" xmlns="http://www.w3.org/2000/svg">
<path fill-rule="evenodd" clip-rule="evenodd" d="M37.4616 12.1197L36.1668 9.87289C35.0715 7.97177 32.644 7.31593 30.7403 8.40677C29.8341 8.9406 28.7528 9.09206 27.7348 8.82774C26.7168 8.56342 25.8457 7.90503 25.3137 6.99777C24.9715 6.4211 24.7875 5.76427 24.7806 5.09372C24.8115 4.01864 24.4059 2.97685 23.6562 2.20566C22.9065 1.43447 21.8766 0.999557 20.8011 1H18.1925C17.1389 1 16.1286 1.41986 15.3853 2.16671C14.6421 2.91356 14.2271 3.92581 14.2321 4.97947C14.2009 7.15494 12.4283 8.90205 10.2526 8.90183C9.58209 8.89486 8.92526 8.71095 8.34859 8.36869C6.44487 7.27785 4.0174 7.93369 2.92203 9.83481L1.53207 12.1197C0.438031 14.0184 1.08495 16.4444 2.97915 17.5462C4.21042 18.2571 4.96891 19.5708 4.96891 20.9926C4.96891 22.4143 4.21042 23.7281 2.97915 24.4389C1.08735 25.5334 0.43973 27.9534 1.53207 29.8464L2.84587 32.1123C3.35909 33.0383 4.2202 33.7217 5.23863 34.0111C6.25707 34.3006 7.34886 34.1722 8.27243 33.6545C9.18034 33.1248 10.2623 32.9796 11.2777 33.2514C12.2931 33.5231 13.158 34.1892 13.6799 35.1016C14.0222 35.6783 14.2061 36.3351 14.2131 37.0057C14.2131 39.2035 15.9947 40.9851 18.1925 40.9851H20.8011C22.9915 40.9851 24.7701 39.2151 24.7806 37.0247C24.7755 35.9677 25.1931 34.9526 25.9405 34.2052C26.6879 33.4578 27.7031 33.0401 28.76 33.0452C29.429 33.0631 30.0831 33.2463 30.6641 33.5784C32.5628 34.6724 34.9888 34.0255 36.0907 32.1313L37.4616 29.8464C37.9922 28.9356 38.1379 27.8508 37.8663 26.8323C37.5947 25.8138 36.9282 24.9455 36.0145 24.4199C35.1008 23.8942 34.4343 23.026 34.1627 22.0075C33.8911 20.9889 34.0368 19.9041 34.5674 18.9933C34.9125 18.3908 35.412 17.8913 36.0145 17.5462C37.8974 16.445 38.5428 14.0332 37.4616 12.1387V12.1197Z" stroke="white" stroke-width="1.5" stroke-linecap="round" stroke-linejoin="round"/>
<path opacity="0.4" d="M19.5064 26.4763C22.5349 26.4763 24.9901 24.0212 24.9901 20.9926C24.9901 17.9641 22.5349 15.5089 19.5064 15.5089C16.4778 15.5089 14.0227 17.9641 14.0227 20.9926C14.0227 24.0212 16.4778 26.4763 19.5064 26.4763Z" stroke="white" stroke-width="1.5" stroke-linecap="round" stroke-linejoin="round"/>
</svg>
